# xmcd
#
# Track frame offsets:
#	183
#	18468
#	33843
#
# Disc length: 910 seconds
#
# Revision: 3
# Processed by: cddbd v1.5.2PL0 Copyright (c) Steve Scherf et al.
# Submitted via: audiograbber 1.83.01
#
DISCID=18038c03
DTITLE=Rosie Ania - Eyes Of A Woman
DYEAR=1990
DGENRE=Blues
TTITLE0=Eyes Of A Woman (7 Inch Version)
TTITLE1=Don't Go Making Promises
TTITLE2=Eyes Of A Woman (12 Inch Mix)
EXTD=
EXTT0=
EXTT1=
EXTT2=
PLAYORDER=
